<?xml version="1.0" standalone="no"?>
<!DOCTYPE svg PUBLIC "-//W3C//DTD SVG 20010904//EN"
 "http://www.w3.org/TR/2001/REC-SVG-20010904/DTD/svg10.dtd">
<svg version="1.0" xmlns="http://www.w3.org/2000/svg"
 width="208.000000pt" height="105.000000pt" viewBox="0 0 208.000000 105.000000"
 preserveAspectRatio="xMidYMid meet">

<g transform="translate(0.000000,105.000000) scale(0.100000,-0.100000)"
fill="#000000" stroke="none">
<path d="M953 673 c-13 -2 -36 -18 -53 -34 -24 -25 -30 -39 -30 -73 0 -75 60
-124 141 -113 57 7 71 22 67 71 l-3 41 -47 3 c-37 2 -48 0 -48 -12 0 -9 11
-16 28 -18 19 -2 28 -9 30 -25 3 -21 -1 -23 -41 -23 -70 0 -101 37 -84 101 9
33 54 54 101 45 35 -7 57 7 40 24 -12 11 -73 19 -101 13z"/>
</g>
</svg>
